<svg id="Grupo_19182" data-name="Grupo 19182" xmlns="http://www.w3.org/2000/svg" width="18.519" height="10.408" viewBox="0 0 18.519 10.408">
  <path id="Trazado_9153" data-name="Trazado 9153" d="M113.737,60.253a5.2,5.2,0,1,0,5.2,5.2A5.2,5.2,0,0,0,113.737,60.253Zm1.783,4.154h0s0,.005,0,.008a.356.356,0,0,1-.712,0s0-.005,0-.008h0v-.421a.584.584,0,0,0-.594-.486h-.95a.584.584,0,0,0-.594.486v.549c0,.16.159.314.388.374l1.554.413a1.139,1.139,0,0,1,.909,1.064v.549a1.289,1.289,0,0,1-1.307,1.2h-.119v.545h0s0,.007,0,.011a.356.356,0,0,1-.713,0s0-.007,0-.011h0v-.545h-.108a1.3,1.3,0,0,1-1.317-1.2v-.407s0,0,0-.006,0,0,0-.006v0h0a.354.354,0,0,1,.708,0h0v.421a.6.6,0,0,0,.6.486h.94a.584.584,0,0,0,.594-.486v-.549c0-.164-.152-.314-.38-.374l-1.554-.413a1.145,1.145,0,0,1-.917-1.064v-.549a1.289,1.289,0,0,1,1.307-1.2h.118v-.55h0s0-.007,0-.011a.356.356,0,0,1,.713,0,.105.105,0,0,1,0,.011h0v.55h.119a1.289,1.289,0,0,1,1.307,1.2Z" transform="translate(-104.478 -60.253)" fill="#0fa362"/>
  <g id="Grupo_7196" data-name="Grupo 7196" transform="translate(0 0.542)">
    <path id="Trazado_9154" data-name="Trazado 9154" d="M96.176,75.3l.333.333-.3.3h2.26v.471H96.2l.3.3-.333.333-.7-.7,0-.343Z" transform="translate(-95.402 -71.249)" fill="#0fa362"/>
    <path id="Trazado_9155" data-name="Trazado 9155" d="M98.8,88.671l1.31-1.31.333.333L99.129,89H99.5v.471h-.945l-.233-.245V88.3H98.8Z" transform="translate(-97.385 -79.63)" fill="#0fa362"/>
    <path id="Trazado_9156" data-name="Trazado 9156" d="M100.113,64.151,98.8,62.834v.374h-.471v-.94l.233-.238H99.5V62.5h-.374l1.317,1.317Z" transform="translate(-97.385 -62.029)" fill="#0fa362"/>
    <path id="Trazado_9157" data-name="Trazado 9157" d="M104.512,77.625a.234.234,0,1,0,.468,0,.234.234,0,1,0-.468,0Z" transform="translate(-101.684 -72.703)" fill="#0fa362"/>
    <path id="Trazado_9158" data-name="Trazado 9158" d="M95.245,77.625a.234.234,0,1,0,.468,0,.234.234,0,0,0-.468,0Z" transform="translate(-95.245 -72.703)" fill="#0fa362"/>
    <path id="Trazado_9159" data-name="Trazado 9159" d="M97.554,79.928a.234.234,0,1,0,.468,0,.234.234,0,0,0-.468,0Z" transform="translate(-96.849 -74.303)" fill="#0fa362"/>
    <path id="Trazado_9160" data-name="Trazado 9160" d="M97.538,75.322a.234.234,0,1,0,.468,0,.234.234,0,0,0-.468,0Z" transform="translate(-96.838 -71.102)" fill="#0fa362"/>
    <path id="Trazado_9161" data-name="Trazado 9161" d="M103.936,67.874a.234.234,0,1,0,.234-.234A.234.234,0,0,0,103.936,67.874Z" transform="translate(-101.284 -65.927)" fill="#0fa362"/>
    <path id="Trazado_9162" data-name="Trazado 9162" d="M101.406,62.262a.234.234,0,1,0,.468,0,.234.234,0,0,0-.468,0Z" transform="translate(-99.526 -62.028)" fill="#0fa362"/>
    <path id="Trazado_9163" data-name="Trazado 9163" d="M98.321,62.262a.234.234,0,1,0,.468,0,.234.234,0,0,0-.468,0Z" transform="translate(-97.382 -62.028)" fill="#0fa362"/>
    <path id="Trazado_9164" data-name="Trazado 9164" d="M98.329,65.355a.234.234,0,1,0,.468,0,.234.234,0,1,0-.468,0Z" transform="translate(-97.388 -64.177)" fill="#0fa362"/>
    <path id="Trazado_9165" data-name="Trazado 9165" d="M103.936,87.368a.234.234,0,1,0,.234-.234A.236.236,0,0,0,103.936,87.368Z" transform="translate(-101.284 -79.472)" fill="#0fa362"/>
    <path id="Trazado_9166" data-name="Trazado 9166" d="M98.332,89.9a.234.234,0,1,0,.468,0,.234.234,0,1,0-.468,0Z" transform="translate(-97.39 -81.231)" fill="#0fa362"/>
    <path id="Trazado_9167" data-name="Trazado 9167" d="M101.4,92.984a.234.234,0,1,0,.468,0,.234.234,0,0,0-.468,0Z" transform="translate(-99.524 -83.374)" fill="#0fa362"/>
    <path id="Trazado_9168" data-name="Trazado 9168" d="M98.326,92.979a.234.234,0,1,0,.468,0,.234.234,0,0,0-.468,0Z" transform="translate(-97.386 -83.371)" fill="#0fa362"/>
  </g>
  <g id="Grupo_7197" data-name="Grupo 7197" transform="translate(15.223 0.542)">
    <path id="Trazado_9169" data-name="Trazado 9169" d="M148.184,75.3l-.333.333.3.3H145.9v.471h2.26l-.3.3.333.333.7-.7,0-.343Z" transform="translate(-145.661 -71.249)" fill="#0fa362"/>
    <path id="Trazado_9170" data-name="Trazado 9170" d="M147.563,88.671l-1.31-1.31-.333.333L147.23,89h-.374v.471h.945l.233-.245V88.3h-.471Z" transform="translate(-145.678 -79.63)" fill="#0fa362"/>
    <path id="Trazado_9171" data-name="Trazado 9171" d="M146.229,64.151l1.317-1.317v.374h.471v-.94l-.233-.238h-.945V62.5h.374L145.9,63.818Z" transform="translate(-145.661 -62.029)" fill="#0fa362"/>
    <path id="Trazado_9172" data-name="Trazado 9172" d="M145.6,77.625a.234.234,0,1,1-.468,0,.234.234,0,1,1,.468,0Z" transform="translate(-145.127 -72.703)" fill="#0fa362"/>
    <path id="Trazado_9173" data-name="Trazado 9173" d="M154.861,77.625a.234.234,0,1,1-.468,0,.234.234,0,0,1,.468,0Z" transform="translate(-151.565 -72.703)" fill="#0fa362"/>
    <path id="Trazado_9174" data-name="Trazado 9174" d="M152.552,79.928a.234.234,0,1,1-.468,0,.234.234,0,0,1,.468,0Z" transform="translate(-149.961 -74.303)" fill="#0fa362"/>
    <path id="Trazado_9175" data-name="Trazado 9175" d="M152.568,75.322a.234.234,0,1,1-.468,0,.234.234,0,0,1,.468,0Z" transform="translate(-149.972 -71.102)" fill="#0fa362"/>
    <path id="Trazado_9176" data-name="Trazado 9176" d="M146.171,67.874a.234.234,0,1,1-.234-.234A.234.234,0,0,1,146.171,67.874Z" transform="translate(-145.527 -65.927)" fill="#0fa362"/>
    <path id="Trazado_9177" data-name="Trazado 9177" d="M148.7,62.262a.234.234,0,1,1-.468,0,.234.234,0,0,1,.468,0Z" transform="translate(-147.284 -62.028)" fill="#0fa362"/>
    <path id="Trazado_9178" data-name="Trazado 9178" d="M151.785,62.262a.234.234,0,1,1-.468,0,.234.234,0,0,1,.468,0Z" transform="translate(-149.428 -62.028)" fill="#0fa362"/>
    <path id="Trazado_9179" data-name="Trazado 9179" d="M151.778,65.355a.234.234,0,1,1-.468,0,.234.234,0,1,1,.468,0Z" transform="translate(-149.423 -64.177)" fill="#0fa362"/>
    <path id="Trazado_9180" data-name="Trazado 9180" d="M146.171,87.368a.234.234,0,1,1-.234-.234A.236.236,0,0,1,146.171,87.368Z" transform="translate(-145.527 -79.472)" fill="#0fa362"/>
    <path id="Trazado_9181" data-name="Trazado 9181" d="M151.775,89.9a.234.234,0,1,1-.468,0,.234.234,0,0,1,.468,0Z" transform="translate(-149.421 -81.231)" fill="#0fa362"/>
    <path id="Trazado_9182" data-name="Trazado 9182" d="M148.7,92.984a.234.234,0,1,1-.468,0,.234.234,0,0,1,.468,0Z" transform="translate(-147.286 -83.374)" fill="#0fa362"/>
    <path id="Trazado_9183" data-name="Trazado 9183" d="M151.78,92.979a.234.234,0,1,1-.468,0,.234.234,0,0,1,.468,0Z" transform="translate(-149.424 -83.371)" fill="#0fa362"/>
  </g>
</svg>
