<svg id="Grupo_27763" data-name="Grupo 27763" xmlns="http://www.w3.org/2000/svg" width="6.285" height="4.095" viewBox="0 0 6.285 4.095">
  <path id="Trazado_28367" data-name="Trazado 28367" d="M6.125,2.291a.167.167,0,0,0-.037-.063,4.754,4.754,0,0,0-.479-.435l.462-.488a.172.172,0,0,0,0-.241.166.166,0,0,0-.237,0l-.493.52a5.082,5.082,0,0,0-.76-.447l.255-.6A.171.171,0,0,0,4.747.321a.166.166,0,0,0-.22.088l-.257.6a3.574,3.574,0,0,0-.738-.2Q3.391.792,3.245.784V.17a.167.167,0,1,0-.335,0V.784c-.046,0-.092.006-.138.011a3.5,3.5,0,0,0-.887.216l-.257-.6a.166.166,0,0,0-.22-.088.172.172,0,0,0-.087.224l.256.6a5.089,5.089,0,0,0-.76.447l-.493-.52a.166.166,0,0,0-.237,0,.173.173,0,0,0,0,.241l.462.488a4.747,4.747,0,0,0-.479.435.164.164,0,0,0-.036.063.173.173,0,0,0,.015.215,4.7,4.7,0,0,0,3.033,1.46,4.7,4.7,0,0,0,3.032-1.46A.173.173,0,0,0,6.125,2.291ZM3.078,1.144a1.225,1.225,0,1,1-1.2,1.225A1.216,1.216,0,0,1,3.078,1.144ZM1.9,1.372A1.576,1.576,0,0,0,1.914,3.38a5.176,5.176,0,0,1-1.519-1A5.152,5.152,0,0,1,1.9,1.372Zm2.708,1a1.568,1.568,0,0,0-.355-1A5.15,5.15,0,0,1,5.761,2.378a5.175,5.175,0,0,1-1.519,1A1.569,1.569,0,0,0,4.609,2.369Z" transform="translate(0.064 0.065)" fill="#707070"/>
  <path id="Trazado_28367_-_Contorno" data-name="Trazado 28367 - Contorno" d="M3.143,4.1a4.763,4.763,0,0,1-3.08-1.48.238.238,0,0,1-.026-.288.227.227,0,0,1,.048-.078,4.652,4.652,0,0,1,.432-.4L.1,1.414a.238.238,0,0,1,.006-.331.23.23,0,0,1,.329.006l.454.48a5.154,5.154,0,0,1,.667-.394L1.327.635a.237.237,0,0,1,.12-.309A.227.227,0,0,1,1.54.306a.232.232,0,0,1,.213.142l.233.545a3.54,3.54,0,0,1,.845-.2L2.91.788V.235a.232.232,0,1,1,.464,0V.788c.078.006.156.015.232.026A3.617,3.617,0,0,1,4.3.993L4.532.448A.232.232,0,0,1,4.745.306a.228.228,0,0,1,.093.02.236.236,0,0,1,.12.308l-.231.54a5.147,5.147,0,0,1,.668.394l.455-.48a.23.23,0,0,1,.329-.006.237.237,0,0,1,.006.331l-.414.438a4.735,4.735,0,0,1,.432.4.229.229,0,0,1,.048.078.238.238,0,0,1-.025.288A4.774,4.774,0,0,1,3.143,4.1ZM.269,1.146A.1.1,0,0,0,.2,1.175a.108.108,0,0,0,0,.151l.51.539-.055.044a4.647,4.647,0,0,0-.472.428.1.1,0,0,0-.022.039l0,.009-.006.008a.108.108,0,0,0,.009.134A4.625,4.625,0,0,0,3.143,3.966,4.636,4.636,0,0,0,6.128,2.527a.108.108,0,0,0,.009-.135l-.005-.008,0-.009a.1.1,0,0,0-.022-.039,4.713,4.713,0,0,0-.472-.429l-.055-.044.51-.539a.108.108,0,0,0,0-.151.1.1,0,0,0-.145,0l-.531.561-.046-.032a5.01,5.01,0,0,0-.75-.441l-.056-.027.28-.654a.107.107,0,0,0-.053-.14A.1.1,0,0,0,4.745.435.1.1,0,0,0,4.651.5l-.282.658-.058-.022A3.521,3.521,0,0,0,3.587.942C3.495.928,3.4.918,3.306.913l-.061,0V.235a.1.1,0,1,0-.206,0V.91l-.061,0c-.05,0-.094.006-.135.01a3.443,3.443,0,0,0-.871.212l-.058.022L1.634.5A.1.1,0,0,0,1.54.435.1.1,0,0,0,1.5.444a.107.107,0,0,0-.054.14l.28.654-.056.027a5.014,5.014,0,0,0-.75.441l-.046.032L.343,1.178A.1.1,0,0,0,.269,1.146ZM3.142,3.723A1.29,1.29,0,1,1,4.41,2.433,1.28,1.28,0,0,1,3.142,3.723Zm0-2.45a1.161,1.161,0,1,0,1.139,1.16A1.151,1.151,0,0,0,3.142,1.273ZM4.33,3.5l-.074-.1a1.511,1.511,0,0,0,.012-1.925l.075-.1A5.212,5.212,0,0,1,5.87,2.4l.049.047-.049.046A5.262,5.262,0,0,1,4.33,3.5Zm.176-1.912a1.642,1.642,0,0,1-.009,1.7,5.252,5.252,0,0,0,1.234-.847A5.19,5.19,0,0,0,4.506,1.592ZM1.954,3.5A5.264,5.264,0,0,1,.415,2.489L.366,2.443.415,2.4A5.213,5.213,0,0,1,1.941,1.377l.075.1A1.512,1.512,0,0,0,2.028,3.4ZM.554,2.442a5.253,5.253,0,0,0,1.234.847,1.642,1.642,0,0,1-.009-1.7A5.193,5.193,0,0,0,.554,2.442Z" transform="translate(0 0)" fill="#707070"/>
  <path id="Trazado_28368" data-name="Trazado 28368" d="M.538,0a.538.538,0,1,0,.539.538A.539.539,0,0,0,.538,0Zm0,.864A.326.326,0,1,1,.864.538.326.326,0,0,1,.538.864Z" transform="translate(2.604 1.909)" fill="#707070"/>
  <path id="Trazado_28368_-_Contorno" data-name="Trazado 28368 - Contorno" d="M.6,0A.6.6,0,1,1,0,.6.6.6,0,0,1,.6,0Zm0,1.077A.474.474,0,1,0,.129.6.475.475,0,0,0,.6,1.077ZM.6.212A.391.391,0,1,1,.213.6.391.391,0,0,1,.6.212ZM.6.864A.262.262,0,1,0,.342.6.262.262,0,0,0,.6.864Z" transform="translate(2.539 1.844)" fill="#707070"/>
  <path id="Trazado_28369" data-name="Trazado 28369" d="M.751.375A.375.375,0,1,1,.375,0,.376.376,0,0,1,.751.375Z" transform="translate(2.766 2.061)" fill="#707070"/>
  <path id="Trazado_28369_-_Contorno" data-name="Trazado 28369 - Contorno" d="M.439,0A.44.44,0,1,1,0,.44.441.441,0,0,1,.439,0Zm0,.751A.311.311,0,1,0,.129.44.312.312,0,0,0,.439.751Z" transform="translate(2.701 1.996)" fill="#707070"/>
</svg>
