<svg xmlns="http://www.w3.org/2000/svg" width="8.219" height="8.294" viewBox="0 0 8.219 8.294">
  <g id="Grupo_27810" data-name="Grupo 27810" transform="translate(0 0)">
    <path id="Trazado_28428" data-name="Trazado 28428" d="M7.015.164a.6.6,0,0,0-.822,0L.838,5.3a.235.235,0,0,0-.047.068L.014,7.307a.193.193,0,0,0,.181.266A.189.189,0,0,0,.267,7.56L2.21,6.782a.192.192,0,0,0,.062-.041L7.6,1.579l0,0a.583.583,0,0,0,0-.824ZM2.181,5.672,6.412,1.626l.037.538L2.14,6.329Zm-1.137.109.75.75-1.25.5ZM7.33,1.3l-.352.34L6.113.776,6.467.438a.2.2,0,0,1,.274,0l.589.589A.194.194,0,0,1,7.33,1.3Z" transform="translate(0 0.721)" fill="#707070"/>
    <rect id="Rectángulo_5587" data-name="Rectángulo 5587" width="0.43" height="0.43" transform="translate(3.489 0)" fill="#707070"/>
    <rect id="Rectángulo_5588" data-name="Rectángulo 5588" width="0.43" height="0.86" transform="translate(3.489 0.43)" fill="#707070"/>
    <rect id="Rectángulo_5589" data-name="Rectángulo 5589" width="0.86" transform="translate(2.629 0.43)" fill="#707070"/>
    <rect id="Rectángulo_5590" data-name="Rectángulo 5590" width="0.43" transform="translate(3.919 0.43)" fill="#707070"/>
    <rect id="Rectángulo_5591" data-name="Rectángulo 5591" width="0.43" height="0.43" transform="translate(6.929 3.87)" fill="#707070"/>
    <rect id="Rectángulo_5592" data-name="Rectángulo 5592" width="0.43" height="0.43" transform="translate(6.929 5.59)" fill="#707070"/>
    <rect id="Rectángulo_5593" data-name="Rectángulo 5593" width="0.86" height="0.86" transform="translate(6.069 4.73)" fill="#707070"/>
    <rect id="Rectángulo_5594" data-name="Rectángulo 5594" height="0.86" transform="translate(8.219 4.73)" fill="#707070"/>
    <rect id="Rectángulo_5595" data-name="Rectángulo 5595" width="0.55" height="0.389" transform="translate(5.694 6.796) rotate(-45)" fill="#707070"/>
    <rect id="Rectángulo_5596" data-name="Rectángulo 5596" width="0.569" height="0.389" transform="translate(4.709 7.783) rotate(-45)" fill="#707070"/>
    <rect id="Rectángulo_5597" data-name="Rectángulo 5597" width="0.389" height="0.56" transform="matrix(0.695, -0.719, 0.719, 0.695, 4.71, 6.685)" fill="#707070"/>
    <rect id="Rectángulo_5598" data-name="Rectángulo 5598" width="0.389" height="0.55" transform="translate(5.694 7.655) rotate(-45)" fill="#707070"/>
    <rect id="Rectángulo_5599" data-name="Rectángulo 5599" width="0.55" height="0.389" transform="translate(1.821 2.131) rotate(-45)" fill="#707070"/>
    <rect id="Rectángulo_5600" data-name="Rectángulo 5600" width="0.569" height="0.389" transform="translate(0.835 3.118) rotate(-45)" fill="#707070"/>
    <rect id="Rectángulo_5601" data-name="Rectángulo 5601" width="0.389" height="0.56" transform="matrix(0.695, -0.719, 0.719, 0.695, 0.838, 2.02)" fill="#707070"/>
    <rect id="Rectángulo_5602" data-name="Rectángulo 5602" width="0.389" height="0.55" transform="translate(1.821 2.991) rotate(-45)" fill="#707070"/>
  </g>
</svg>
