<svg id="Grupo_28124" data-name="Grupo 28124" xmlns="http://www.w3.org/2000/svg" width="37.528" height="37.53" viewBox="0 0 37.528 37.53">
  <path id="Trazado_17092" data-name="Trazado 17092" d="M22.645,0A18.811,18.811,0,0,0,5.9,10.3c1.535,1.671,6.514,5.559,12.107,4.058a10.152,10.152,0,0,0,3.717-1.91c3.581-2.728,5.8-6.821,15.449-5.593A18.8,18.8,0,0,0,22.645,0" transform="translate(-3.903 0)" fill="#fff"/>
  <path id="Trazado_17093" data-name="Trazado 17093" d="M30.43,83.7c-4.706,2.114-9.276,5.115-20.53-.034h0a18.78,18.78,0,0,0,31.238-.716c-4.74-1.569-7.741-.58-10.708.75" transform="translate(-6.539 -54.131)" fill="#fff"/>
  <path id="Trazado_17094" data-name="Trazado 17094" d="M65.04,26.538c4.433-.989,5.388-3.308,5.218-4.433a28.176,28.176,0,0,0-3.41-.2C60.436,21.9,56,26.913,55.9,27.015a39.009,39.009,0,0,0,9.14-.477" transform="translate(-36.852 -14.431)" fill="#fff"/>
  <path id="Trazado_17095" data-name="Trazado 17095" d="M11.6,81.731a25.453,25.453,0,0,0,10.674,2.728h0a19.322,19.322,0,0,0,8.389-2.319A22.645,22.645,0,0,0,21.9,80.3c-5.218.068-8.492.512-10.3,1.432" transform="translate(-7.659 -52.914)" fill="#fff"/>
  <path id="Trazado_17096" data-name="Trazado 17096" d="M60.869,40.076A7.463,7.463,0,0,1,57.8,41.508c8.8.614,15.381-3.615,16.2-8.423-.443-.239-2.285-2.114-13.13,6.991" transform="translate(-38.104 -21.592)" fill="#fff"/>
  <path id="Trazado_17097" data-name="Trazado 17097" d="M36.418,36h0c-1.091,6.139-9.924,9.378-19.916,7.98A35.631,35.631,0,0,1,.678,37.671h0a18.66,18.66,0,0,0,.512,11.254c.239.1,5.15,3.274,22.372-.409a26.539,26.539,0,0,1,12.891.546A19.3,19.3,0,0,0,36.418,36" transform="translate(-0.045 -23.723)" fill="#fff"/>
</svg>
