<svg xmlns="http://www.w3.org/2000/svg" width="13.754" height="14.369" viewBox="0 0 13.754 14.369">
  <g id="Grupo_19177" data-name="Grupo 19177" transform="translate(0 0)">
    <path id="Trazado_10430" data-name="Trazado 10430" d="M230.572,1376.724a1.154,1.154,0,0,1,1.175,0l4.541-4.541a1.149,1.149,0,0,1-.157-.623,1.192,1.192,0,0,1,.159-.551l-1.469-1.469a1.2,1.2,0,0,1-.551.158,1.115,1.115,0,0,1-.623-.156l-4.543,4.542a1.143,1.143,0,0,1,.157.623,1.2,1.2,0,0,1-.159.551Zm3.753-5.657.435.435-.615.615-.435-.435Zm-1.782.832a1.384,1.384,0,1,1-1.385,1.384A1.386,1.386,0,0,1,232.542,1371.9Zm-1.6,2.552.435.435-.615.615-.435-.435Z" transform="translate(-225.403 -1366.67)" fill="#0fa362"/>
    <path id="Trazado_10431" data-name="Trazado 10431" d="M232.048,1364.589a.308.308,0,0,0-.435,0l-8,8a.307.307,0,0,0,0,.435l1.167,1.167.435-.435-.949-.949,7.564-7.564,4.179,4.18-7.563,7.564-2.243-2.243-.435.435,1.32,1.32.218-.218.435.436-.217.217.705.706a.309.309,0,0,0,.435,0l8-8a.308.308,0,0,0,0-.435Z" transform="translate(-222.999 -1364.499)" fill="#0fa362"/>
    <path id="Trazado_10432" data-name="Trazado 10432" d="M224.884,1381.2h0a.262.262,0,0,0-.371,0l-1.1,1.1a.263.263,0,0,0,0,.371l.064.063a.262.262,0,0,0,.372,0l1.782-1.782a.263.263,0,0,0,0-.372l-.249-.249-.244.244.186.186a.263.263,0,0,1,0,.372l-.064.064A.263.263,0,0,1,224.884,1381.2Z" transform="translate(-222.917 -1371.322)" fill="#0fa362"/>
    <rect id="Rectángulo_2072" data-name="Rectángulo 2072" width="0.615" height="0.525" transform="translate(1.782 9.691) rotate(-45)" fill="#0fa362"/>
    <rect id="Rectángulo_2073" data-name="Rectángulo 2073" width="3.481" height="0.615" rx="0.308" transform="translate(0 13.627) rotate(-45)" fill="#0fa362"/>
    <rect id="Rectángulo_2074" data-name="Rectángulo 2074" width="0.998" height="0.615" rx="0.308" transform="matrix(0.707, -0.707, 0.707, 0.707, 3.384, 12.704)" fill="#0fa362"/>
    <rect id="Rectángulo_2075" data-name="Rectángulo 2075" width="0.308" height="0.615" transform="translate(4.089 11.998) rotate(-45)" fill="#0fa362"/>
    <rect id="Rectángulo_2076" data-name="Rectángulo 2076" width="0.87" height="0.615" rx="0.308" transform="matrix(0.707, -0.707, 0.707, 0.707, 2.153, 13.934)" fill="#0fa362"/>
    <rect id="Rectángulo_2077" data-name="Rectángulo 2077" width="3.046" height="0.615" rx="0.308" transform="translate(3.692 2.244) rotate(-45.001)" fill="#0fa362"/>
    <rect id="Rectángulo_2078" data-name="Rectángulo 2078" width="0.87" height="0.615" rx="0.308" transform="translate(2.461 3.474) rotate(-45)" fill="#0fa362"/>
    <rect id="Rectángulo_2079" data-name="Rectángulo 2079" width="3.916" height="0.615" rx="0.308" transform="translate(7.383 13.011) rotate(-44.999)" fill="#0fa362"/>
    <rect id="Rectángulo_2080" data-name="Rectángulo 2080" width="0.87" height="0.615" rx="0.308" transform="matrix(0.707, -0.707, 0.707, 0.707, 1.231, 4.705)" fill="#0fa362"/>
    <path id="Trazado_10433" data-name="Trazado 10433" d="M234.718,1374.936l-.2.2-.1-.1a.155.155,0,0,0-.2,0l-.2.2a.157.157,0,0,0,0,.2l.031.031a.12.12,0,0,0,.143.009l.434-.233a.4.4,0,0,1,.483.061l.031.031a.446.446,0,0,1,.05.55.1.1,0,0,0,.013.124l.071.071a.1.1,0,0,1,0,.141l-.063.063a.1.1,0,0,1-.141,0l-.072-.072a.1.1,0,0,0-.124-.012.446.446,0,0,1-.55-.05l-.1-.1.2-.2.1.1a.158.158,0,0,0,.206,0l.2-.2a.156.156,0,0,0,0-.2l-.031-.031a.121.121,0,0,0-.142-.01l-.433.234a.408.408,0,0,1-.485-.059l-.031-.031a.446.446,0,0,1-.05-.55.1.1,0,0,0-.013-.124l-.071-.072a.1.1,0,0,1,0-.14l.063-.063a.1.1,0,0,1,.141,0l.071.071a.1.1,0,0,0,.124.012.447.447,0,0,1,.551.05Z" transform="translate(-227.357 -1368.882)" fill="#0fa362"/>
  </g>
</svg>
