<svg xmlns="http://www.w3.org/2000/svg" width="14.457" height="12.877" viewBox="0 0 14.457 12.877">
  <g id="Grupo_19178" data-name="Grupo 19178" transform="translate(0 0)">
    <g id="Grupo_18287" data-name="Grupo 18287" transform="translate(7.698 0)">
      <g id="Grupo_17318" data-name="Grupo 17318" transform="translate(0.838 1.886)">
        <g id="Grupo_17317" data-name="Grupo 17317" transform="translate(0 0)">
          <g id="Grupo_17315" data-name="Grupo 17315">
            <path id="Trazado_15369" data-name="Trazado 15369" d="M4130.479,1475.333h-.352v-1.343h1.342v.352h-.99Z" transform="translate(-4130.126 -1473.99)" fill="#0fa362"/>
            <path id="Trazado_15370" data-name="Trazado 15370" d="M4167.379,1475.333h-.352v-.99h-.99v-.352h1.342Z" transform="translate(-4162.273 -1473.99)" fill="#0fa362"/>
          </g>
          <g id="Grupo_17316" data-name="Grupo 17316" transform="translate(0 7.62)">
            <path id="Trazado_15371" data-name="Trazado 15371" d="M4130.479,1546.7h-.352v1.343h1.342v-.352h-.99Z" transform="translate(-4130.126 -1546.698)" fill="#0fa362"/>
            <path id="Trazado_15372" data-name="Trazado 15372" d="M4167.379,1546.7h-.352v.99h-.99v.352h1.342Z" transform="translate(-4162.273 -1546.698)" fill="#0fa362"/>
          </g>
        </g>
      </g>
      <g id="Grupo_17321" data-name="Grupo 17321" transform="translate(1.362 4.402)">
        <g id="Grupo_17320" data-name="Grupo 17320" transform="translate(0 0)">
          <path id="Trazado_15373" data-name="Trazado 15373" d="M4137.149,1500.877a2.03,2.03,0,1,1,2.031-2.029A2.033,2.033,0,0,1,4137.149,1500.877Zm0-3.674a1.644,1.644,0,1,0,1.644,1.645A1.647,1.647,0,0,0,4137.149,1497.2Z" transform="translate(-4135.119 -1496.817)" fill="#0fa362"/>
        </g>
      </g>
      <g id="Grupo_17324" data-name="Grupo 17324" transform="translate(2.306 5.659)">
        <g id="Grupo_17323" data-name="Grupo 17323" transform="translate(0 0)">
          <path id="Trazado_15374" data-name="Trazado 15374" d="M4144.333,1510.427a.23.23,0,0,1-.164-.065l-.692-.646a.209.209,0,0,1,0-.309.246.246,0,0,1,.329,0l.526.493,1-.939a.246.246,0,0,1,.329,0,.21.21,0,0,1,0,.309l-1.168,1.091A.26.26,0,0,1,4144.333,1510.427Z" transform="translate(-4143.409 -1508.899)" fill="#0fa362"/>
        </g>
      </g>
      <g id="Grupo_17328" data-name="Grupo 17328" transform="translate(0 0)">
        <g id="Grupo_17327" data-name="Grupo 17327" transform="translate(0)">
          <path id="Trazado_15375" data-name="Trazado 15375" d="M4127.922,1454.752h-4.53a1.145,1.145,0,0,0-1.155,1.1v10.667a1.155,1.155,0,0,0,1.155,1.111h4.805c.61,0,.8-.5.8-1.111v-10.667A1.075,1.075,0,0,0,4127.922,1454.752Zm-3.172.579h1.733a.17.17,0,1,1,0,.339h-1.733a.17.17,0,1,1,0-.339Zm3.962,10.555a.32.32,0,0,1-.32.321h-5.479a.32.32,0,0,1-.32-.321v-9.391a.32.32,0,0,1,.32-.321h5.479a.321.321,0,0,1,.32.321Z" transform="translate(-4122.236 -1454.752)" fill="#0fa362"/>
        </g>
      </g>
    </g>
    <g id="Grupo_18288" data-name="Grupo 18288" transform="translate(0 3.039)">
      <g id="Grupo_17330" data-name="Grupo 17330" transform="translate(0 0)">
        <path id="Trazado_15378" data-name="Trazado 15378" d="M4069.4,1486.51h-2.978v-2.978h2.978Zm-2.3-.681h1.617v-1.617H4067.1Z" transform="translate(-4066.424 -1483.532)" fill="#0fa362"/>
        <rect id="Rectángulo_3344" data-name="Rectángulo 3344" width="0.766" height="0.766" transform="translate(1.106 1.106)" fill="#0fa362"/>
        <path id="Trazado_15379" data-name="Trazado 15379" d="M4069.4,1523.043h-2.978v-2.978h2.978Zm-2.3-.681h1.617v-1.616H4067.1Z" transform="translate(-4066.424 -1516.236)" fill="#0fa362"/>
        <rect id="Rectángulo_3345" data-name="Rectángulo 3345" width="0.766" height="0.766" transform="translate(1.106 4.935)" fill="#0fa362"/>
        <rect id="Rectángulo_3346" data-name="Rectángulo 3346" width="0.766" height="0.766" transform="translate(4.935 4.935)" fill="#0fa362"/>
        <rect id="Rectángulo_3347" data-name="Rectángulo 3347" width="0.766" height="0.766" transform="translate(5.701 4.169)" fill="#0fa362"/>
        <rect id="Rectángulo_3348" data-name="Rectángulo 3348" width="0.766" height="0.766" transform="translate(4.169 4.169)" fill="#0fa362"/>
        <rect id="Rectángulo_3349" data-name="Rectángulo 3349" width="0.766" height="0.766" transform="translate(5.701 5.701)" fill="#0fa362"/>
        <rect id="Rectángulo_3350" data-name="Rectángulo 3350" width="0.766" height="0.766" transform="translate(4.169 5.701)" fill="#0fa362"/>
        <path id="Trazado_15380" data-name="Trazado 15380" d="M4105.935,1486.51h-2.978v-2.978h2.978Zm-2.3-.681h1.616v-1.617h-1.616Z" transform="translate(-4099.128 -1483.532)" fill="#0fa362"/>
        <rect id="Rectángulo_3351" data-name="Rectángulo 3351" width="0.766" height="0.766" transform="translate(4.935 1.106)" fill="#0fa362"/>
      </g>
    </g>
  </g>
</svg>
