<svg xmlns="http://www.w3.org/2000/svg" width="22.882" height="7.084" viewBox="0 0 22.882 7.084">
  <g id="Grupo_27806" data-name="Grupo 27806" transform="translate(0 0)">
    <g id="Grupo_27805" data-name="Grupo 27805" transform="translate(0 0)">
      <g id="Grupo_27804" data-name="Grupo 27804">
        <path id="Trazado_28405" data-name="Trazado 28405" d="M1.549,1.885a.461.461,0,0,1-.142.19.7.7,0,0,1-.253.122,1.411,1.411,0,0,1-.376.044H0V0H.759a1.415,1.415,0,0,1,.365.04.639.639,0,0,1,.237.113.413.413,0,0,1,.128.174.62.62,0,0,1,.039.223.651.651,0,0,1-.03.21.434.434,0,0,1-.085.148.441.441,0,0,1-.13.1.984.984,0,0,1-.164.064v.019a1.043,1.043,0,0,1,.179.054.484.484,0,0,1,.152.1.465.465,0,0,1,.106.159.609.609,0,0,1,.04.234.668.668,0,0,1-.045.25M1.132.391A.32.32,0,0,0,.994.3.626.626,0,0,0,.821.264C.76.261.707.26.663.26H.33v.7H.657A1.111,1.111,0,0,0,.843.947.543.543,0,0,0,1.015.89.333.333,0,0,0,1.14.773a.362.362,0,0,0,.048-.2A.271.271,0,0,0,1.132.391M1.2,1.418A.328.328,0,0,0,1.075,1.3.583.583,0,0,0,.893,1.24a1.268,1.268,0,0,0-.214-.018H.33v.758H.7a1.557,1.557,0,0,0,.216-.014.522.522,0,0,0,.176-.055A.289.289,0,0,0,1.207,1.8a.392.392,0,0,0,.041-.192A.349.349,0,0,0,1.2,1.418" transform="translate(8.583 0.989)" fill="#fff"/>
        <path id="Trazado_28406" data-name="Trazado 28406" d="M1.086,1.744c-.116,0-.232.006-.347.006a1.809,1.809,0,0,1-.3-.022.628.628,0,0,1-.234-.083.413.413,0,0,1-.152-.168A.615.615,0,0,1,0,1.2.465.465,0,0,1,.088.9.519.519,0,0,1,.31.74.979.979,0,0,1,.6.683Q.754.675.886.675c.036,0,.077,0,.122,0s.095,0,.15,0A2,2,0,0,0,1.149.466.23.23,0,0,0,1.093.331.263.263,0,0,0,.949.262,1.549,1.549,0,0,0,.675.243,1.934,1.934,0,0,0,.4.264C.3.277.208.293.119.31V.061A2.975,2.975,0,0,1,.711,0a2.722,2.722,0,0,1,.317.017.646.646,0,0,1,.241.075A.383.383,0,0,1,1.421.26a.682.682,0,0,1,.054.3V1.712c-.143.017-.273.028-.389.032M1.162.921.985.915l-.109,0A2.157,2.157,0,0,0,.649.923.543.543,0,0,0,.478.968a.248.248,0,0,0-.108.091.273.273,0,0,0-.037.15.29.29,0,0,0,.044.168.259.259,0,0,0,.116.093.577.577,0,0,0,.165.04,1.823,1.823,0,0,0,.19.01c.043,0,.085,0,.128,0L1.162,1.5Z" transform="translate(10.465 1.514)" fill="#fff"/>
        <path id="Trazado_28407" data-name="Trazado 28407" d="M1.155,1.715V.641c0-.045,0-.09,0-.135A.313.313,0,0,0,1.119.386.214.214,0,0,0,1.032.3.34.34,0,0,0,.864.265.634.634,0,0,0,.73.282C.68.292.632.305.583.32S.486.352.441.37L.317.419v1.3H0V.03H.295V.184C.378.147.449.118.509.093A1.432,1.432,0,0,1,.672.036.842.842,0,0,1,.816.007,1.524,1.524,0,0,1,.973,0a.624.624,0,0,1,.18.027.442.442,0,0,1,.164.09.477.477,0,0,1,.116.16.561.561,0,0,1,.045.235v1.2Z" transform="translate(12.43 1.514)" fill="#fff"/>
        <path id="Trazado_28408" data-name="Trazado 28408" d="M1.13,1.743c-.071.006-.14.008-.208.008a1.188,1.188,0,0,1-.375-.056.776.776,0,0,1-.291-.17A.757.757,0,0,1,.067,1.24,1.088,1.088,0,0,1,0,.841.871.871,0,0,1,.07.483.778.778,0,0,1,.262.219.837.837,0,0,1,.549.056,1.084,1.084,0,0,1,.9,0l.122,0c.036,0,.071,0,.1.006s.067.007.1.013l.112.017v.25L1.165.262A1.232,1.232,0,0,0,1.011.253,1.055,1.055,0,0,0,.746.285a.593.593,0,0,0-.213.1A.472.472,0,0,0,.39.571.667.667,0,0,0,.339.848a.623.623,0,0,0,.181.491.7.7,0,0,0,.494.159l.151-.009c.053,0,.117-.013.192-.026v.246a1.771,1.771,0,0,1-.227.034" transform="translate(14.306 1.514)" fill="#fff"/>
        <path id="Trazado_28409" data-name="Trazado 28409" d="M1.634,1.231a.818.818,0,0,1-.176.283.8.8,0,0,1-.268.184.868.868,0,0,1-.341.066A.931.931,0,0,1,.488,1.7a.74.74,0,0,1-.267-.184.78.78,0,0,1-.165-.282A1.108,1.108,0,0,1,0,.871,1.086,1.086,0,0,1,.057.507.764.764,0,0,1,.222.234.726.726,0,0,1,.488.061,1,1,0,0,1,.848,0a.984.984,0,0,1,.358.061.718.718,0,0,1,.432.446A1.07,1.07,0,0,1,1.7.871a1.009,1.009,0,0,1-.062.36M1.228.4A.452.452,0,0,0,.848.237.451.451,0,0,0,.468.4.749.749,0,0,0,.339.871a.8.8,0,0,0,.129.479.44.44,0,0,0,.38.177.441.441,0,0,0,.38-.177A.8.8,0,0,0,1.357.871.751.751,0,0,0,1.228.4" transform="translate(15.871 1.507)" fill="#fff"/>
        <path id="Trazado_28410" data-name="Trazado 28410" d="M.34.272v.743h.845v.272H.34V2.24H0V0H1.425V.272Z" transform="translate(8.583 4.048)" fill="#fff"/>
        <path id="Trazado_28411" data-name="Trazado 28411" d="M0,0H.32V.31H0ZM0,.72H.32V2.4H0Z" transform="translate(10.229 3.888)" fill="#fff"/>
        <path id="Trazado_28412" data-name="Trazado 28412" d="M1.155,1.715V.641c0-.045,0-.09,0-.135a.3.3,0,0,0-.032-.12A.211.211,0,0,0,1.032.3.34.34,0,0,0,.864.265.619.619,0,0,0,.73.282C.68.292.632.305.583.32S.486.352.44.37L.317.42v1.3H0V.03H.295V.184C.378.147.449.118.509.093A1.5,1.5,0,0,1,.672.036.917.917,0,0,1,.816.008,1.425,1.425,0,0,1,.973,0a.628.628,0,0,1,.181.027.433.433,0,0,1,.163.09.469.469,0,0,1,.117.16.564.564,0,0,1,.045.236v1.2Z" transform="translate(11.048 4.573)" fill="#fff"/>
        <path id="Trazado_28413" data-name="Trazado 28413" d="M1.086,1.744q-.174.006-.347.006a1.784,1.784,0,0,1-.3-.023.624.624,0,0,1-.233-.083.408.408,0,0,1-.152-.168A.618.618,0,0,1,0,1.2.461.461,0,0,1,.088.9.513.513,0,0,1,.309.741.971.971,0,0,1,.6.683C.7.678.8.675.886.675c.036,0,.077,0,.122,0s.095,0,.151,0a1.992,1.992,0,0,0-.01-.219A.226.226,0,0,0,1.093.331.266.266,0,0,0,.949.262,1.511,1.511,0,0,0,.675.243,1.979,1.979,0,0,0,.4.264C.3.278.208.293.118.31V.06A3,3,0,0,1,.71,0a2.653,2.653,0,0,1,.317.018.642.642,0,0,1,.24.075.381.381,0,0,1,.154.168.679.679,0,0,1,.054.3V1.712q-.215.026-.389.032M1.162.921.985.915l-.109,0A2.06,2.06,0,0,0,.649.923.539.539,0,0,0,.477.968a.243.243,0,0,0-.107.091.273.273,0,0,0-.037.15.286.286,0,0,0,.044.168.262.262,0,0,0,.116.093.586.586,0,0,0,.165.039,1.732,1.732,0,0,0,.19.01c.043,0,.086,0,.128,0L1.162,1.5Z" transform="translate(12.878 4.573)" fill="#fff"/>
        <path id="Trazado_28414" data-name="Trazado 28414" d="M1.155,1.715V.641c0-.045,0-.09,0-.135a.3.3,0,0,0-.032-.12A.211.211,0,0,0,1.032.3.341.341,0,0,0,.864.265.622.622,0,0,0,.729.282C.68.292.632.305.583.32S.486.352.44.37L.317.42v1.3H0V.03H.294V.184L.509.093A1.478,1.478,0,0,1,.672.036.914.914,0,0,1,.816.008,1.427,1.427,0,0,1,.973,0a.623.623,0,0,1,.18.027.435.435,0,0,1,.164.09.469.469,0,0,1,.117.16.563.563,0,0,1,.045.236v1.2Z" transform="translate(14.843 4.573)" fill="#fff"/>
        <path id="Trazado_28415" data-name="Trazado 28415" d="M1.539.368v2.01L1.4,2.4c-.051.007-.1.014-.157.019s-.107.01-.161.013-.1,0-.152,0A1.176,1.176,0,0,1,.56,2.38a.852.852,0,0,1-.294-.165.761.761,0,0,1-.2-.271A.933.933,0,0,1,0,1.571,1.148,1.148,0,0,1,.056,1.2.782.782,0,0,1,.221.92.764.764,0,0,1,.488.738.963.963,0,0,1,.854.672H.993a1.962,1.962,0,0,1,.226.021V0h.32Zm-.32.579C1.151.937,1.093.929,1.047.925S.96.918.924.918a.573.573,0,0,0-.435.157.684.684,0,0,0-.149.486.774.774,0,0,0,.04.256.571.571,0,0,0,.116.2.509.509,0,0,0,.188.13.669.669,0,0,0,.257.046c.03,0,.067,0,.111,0s.1-.006.168-.012Z" transform="translate(16.718 3.888)" fill="#fff"/>
        <path id="Trazado_28416" data-name="Trazado 28416" d="M0,0H.32V.31H0ZM0,.72H.32V2.4H0Z" transform="translate(18.757 3.888)" fill="#fff"/>
        <path id="Trazado_28417" data-name="Trazado 28417" d="M1.155,1.715V.641c0-.045,0-.09-.005-.135a.3.3,0,0,0-.032-.12A.209.209,0,0,0,1.032.3.339.339,0,0,0,.864.265.615.615,0,0,0,.729.282C.68.292.631.305.583.32S.486.352.44.37L.316.42v1.3H0V.03H.294V.184C.378.147.449.118.509.093A1.455,1.455,0,0,1,.672.036.916.916,0,0,1,.816.008,1.435,1.435,0,0,1,.973,0a.631.631,0,0,1,.181.027.437.437,0,0,1,.163.09.469.469,0,0,1,.117.16.563.563,0,0,1,.045.236v1.2Z" transform="translate(19.577 4.573)" fill="#fff"/>
        <path id="Trazado_28418" data-name="Trazado 28418" d="M1.086,1.744c-.116,0-.232.006-.347.006a1.77,1.77,0,0,1-.3-.023.626.626,0,0,1-.234-.083.414.414,0,0,1-.152-.168A.614.614,0,0,1,0,1.2.46.46,0,0,1,.088.9.512.512,0,0,1,.31.741.965.965,0,0,1,.6.683C.7.678.8.675.886.675c.036,0,.077,0,.122,0s.095,0,.15,0A2.01,2.01,0,0,0,1.149.466.226.226,0,0,0,1.093.331.265.265,0,0,0,.949.262,1.51,1.51,0,0,0,.675.243,1.977,1.977,0,0,0,.4.264C.3.278.208.293.118.31V.06A3,3,0,0,1,.71,0a2.644,2.644,0,0,1,.317.018.645.645,0,0,1,.241.075.383.383,0,0,1,.153.168.684.684,0,0,1,.054.3V1.712c-.143.017-.273.028-.389.032M1.161.921.985.915l-.109,0A2.072,2.072,0,0,0,.649.923.542.542,0,0,0,.477.968a.245.245,0,0,0-.108.091.273.273,0,0,0-.037.15.286.286,0,0,0,.043.168.263.263,0,0,0,.115.093.588.588,0,0,0,.165.039,1.741,1.741,0,0,0,.19.01c.043,0,.086,0,.129,0L1.161,1.5Z" transform="translate(21.407 4.573)" fill="#fff"/>
        <g id="Grupo_27803" data-name="Grupo 27803">
          <path id="Trazado_28419" data-name="Trazado 28419" d="M3.162,0A3.541,3.541,0,0,0,0,1.945a2.468,2.468,0,0,0,2.285.765,1.983,1.983,0,0,0,.7-.357A3.038,3.038,0,0,1,5.9,1.3,3.536,3.536,0,0,0,3.162,0" transform="translate(0.379 0)" fill="#fff"/>
          <path id="Trazado_28420" data-name="Trazado 28420" d="M0,0H0V0Z" transform="translate(0.64 5.572)" fill="#fff"/>
          <path id="Trazado_28421" data-name="Trazado 28421" d="M0,0H0Z" transform="translate(0.64 5.573)" fill="#fff"/>
          <path id="Trazado_28422" data-name="Trazado 28422" d="M3.873.292A3.733,3.733,0,0,1,0,.288v0A3.536,3.536,0,0,0,2.9,1.8,3.539,3.539,0,0,0,5.894.153a2.481,2.481,0,0,0-2.022.14" transform="translate(0.64 5.284)" fill="#fff"/>
          <path id="Trazado_28423" data-name="Trazado 28423" d="M0,0H0" transform="translate(0.118 2.631)" fill="#fff"/>
          <path id="Trazado_28424" data-name="Trazado 28424" d="M1.725.879C2.56.69,2.744.257,2.71.04A4.531,4.531,0,0,0,2.067,0,3.037,3.037,0,0,0,0,.964,7.276,7.276,0,0,0,1.725.879" transform="translate(3.594 1.406)" fill="#fff"/>
          <path id="Trazado_28425" data-name="Trazado 28425" d="M0,.268A4.829,4.829,0,0,0,2.012.786h0A3.615,3.615,0,0,0,3.595.35,4.319,4.319,0,0,0,1.941,0,4.82,4.82,0,0,0,0,.268" transform="translate(0.747 5.172)" fill="#fff"/>
          <path id="Trazado_28426" data-name="Trazado 28426" d="M.58,1.377A1.467,1.467,0,0,1,0,1.65C1.658,1.769,2.9.97,3.058.059,2.976.016,2.624-.34.58,1.377" transform="translate(3.72 2.109)" fill="#fff"/>
          <path id="Trazado_28427" data-name="Trazado 28427" d="M6.865,0V0c-.2,1.161-1.873,1.769-3.759,1.507A6.73,6.73,0,0,1,.119.315h0A3.552,3.552,0,0,0,.212,2.438c.044.02.972.619,4.22-.08a5.069,5.069,0,0,1,2.431.1A3.553,3.553,0,0,0,6.865,0" transform="translate(0 2.315)" fill="#fff"/>
        </g>
      </g>
    </g>
  </g>
</svg>
