<svg xmlns="http://www.w3.org/2000/svg" width="19.63" height="12.767" viewBox="0 0 19.63 12.767">
  <g id="Grupo_24581" data-name="Grupo 24581" transform="translate(1.028 0.914)">
    <path id="Trazado_20639" data-name="Trazado 20639" d="M234.43,58.868l-1.285.389a.525.525,0,0,0-.345.635l1.433,5.357a.525.525,0,0,0,.665.365l1.3-.382a.526.526,0,0,0,.35-.638L235.1,59.231A.525.525,0,0,0,234.43,58.868Z" transform="translate(-218.99 -58.724)" fill="none" stroke="#0fa362" stroke-linecap="round" stroke-linejoin="round" stroke-width="2"/>
    <path id="Trazado_20640" data-name="Trazado 20640" d="M201.027,64.759a3.241,3.241,0,0,1-.463.156.545.545,0,0,1-.556-.192c-.194-.244-.523-.657-.905-1.124-2.194-2.68-3.56-3.313-5.26-3.065a6.637,6.637,0,0,0-1.729.628c-.665.261-1.83.254-1.861-.505-.02-.487.923-.931,1.987-1.617a3.885,3.885,0,0,1,3.944-.37,31.947,31.947,0,0,0,3.475.976" transform="translate(-185.803 -58.304)" fill="#0fa362" stroke="#0fa362" stroke-linecap="round" stroke-linejoin="round" stroke-width="2"/>
    <path id="Trazado_20641" data-name="Trazado 20641" d="M207.61,90.735c1.568.73,2.007-.242,2.007-.242A1.4,1.4,0,0,0,210.9,89.4a1.277,1.277,0,0,0,1.441-1.158c.931.017,1.792-.987,1.018-1.851" transform="translate(-199.348 -80.221)" fill="none" stroke="#0fa362" stroke-linecap="round" stroke-linejoin="round" stroke-width="2"/>
    <path id="Trazado_20642" data-name="Trazado 20642" d="M180.7,87.9s.422.324.853.6" transform="translate(-178.352 -81.401)" fill="none" stroke="#0fa362" stroke-linecap="round" stroke-linejoin="round" stroke-width="2"/>
    <path id="Trazado_20643" data-name="Trazado 20643" d="M188.43,64.359c-.772-.132-1.421-.264-1.421-.264" transform="translate(-183.273 -62.823)" fill="none" stroke="#0fa362" stroke-linecap="round" stroke-linejoin="round" stroke-width="2"/>
    <path id="Trazado_20644" data-name="Trazado 20644" d="M186.454,93.847a.252.252,0,0,0-.2-.107,1.112,1.112,0,0,1-.742-.259,1.089,1.089,0,0,1-.247-.377.279.279,0,0,0-.341-.16.862.862,0,0,1-1-.8.233.233,0,0,0-.211-.221c-.691-.047-1.076-.847-.637-1.275a.812.812,0,0,1,1.177.337.188.188,0,0,0,.263.092.746.746,0,0,1,1.048.476.217.217,0,0,0,.234.142.888.888,0,0,1,1.06.912.275.275,0,0,0,.268.243c.457-.011.752.216.8.474a.877.877,0,0,0,.394.627C188.408,94.221,186.979,94.586,186.454,93.847Z" transform="translate(-180.058 -83.433)" fill="#0fa161" stroke="#0fa362" stroke-linecap="round" stroke-linejoin="round" stroke-width="2"/>
    <path id="Trazado_20645" data-name="Trazado 20645" d="M172.135,58.868l1.285.389a.526.526,0,0,1,.345.635l-1.433,5.357a.525.525,0,0,1-.665.365l-1.3-.382a.526.526,0,0,1-.349-.638l1.447-5.364A.525.525,0,0,1,172.135,58.868Z" transform="translate(-170 -58.724)" fill="none" stroke="#0fa362" stroke-linecap="round" stroke-linejoin="round" stroke-width="2"/>
    <line id="Línea_380" data-name="Línea 380" x1="1.344" y1="1.519" transform="translate(11.644 6.502)" fill="none" stroke="#0fa362" stroke-linecap="round" stroke-linejoin="round" stroke-width="2"/>
    <line id="Línea_381" data-name="Línea 381" x1="1.077" y1="1.222" transform="translate(10.471 7.958)" fill="none" stroke="#0fa362" stroke-linecap="round" stroke-linejoin="round" stroke-width="2"/>
    <line id="Línea_382" data-name="Línea 382" x1="0.808" y1="0.956" transform="translate(9.461 9.316)" fill="none" stroke="#0fa362" stroke-linecap="round" stroke-linejoin="round" stroke-width="2"/>
  </g>
</svg>
