<svg xmlns="http://www.w3.org/2000/svg" xmlns:xlink="http://www.w3.org/1999/xlink" width="14.609" height="15.137" viewBox="0 0 14.609 15.137">
  <defs>
    <linearGradient id="linear-gradient" x1="0.5" x2="0.5" y2="1" gradientUnits="objectBoundingBox">
      <stop offset="0" stop-color="#ff5b52"/>
      <stop offset="1" stop-color="#ff2352"/>
    </linearGradient>
  </defs>
  <g id="Grupo_9804" data-name="Grupo 9804" transform="translate(0 0)">
    <path id="Trazado_10430" data-name="Trazado 10430" d="M230.578,1376.756a1.158,1.158,0,0,1,1.18,0l4.561-4.562a1.154,1.154,0,0,1-.157-.625,1.2,1.2,0,0,1,.159-.553l-1.476-1.476a1.206,1.206,0,0,1-.553.159,1.119,1.119,0,0,1-.626-.157L229.1,1374.1a1.149,1.149,0,0,1,.158.626,1.2,1.2,0,0,1-.16.553Zm3.769-5.682.437.437-.618.618-.437-.437Zm-1.79.836a1.391,1.391,0,1,1-1.391,1.39A1.392,1.392,0,0,1,232.558,1371.91Zm-1.609,2.563.437.437-.618.618-.437-.437Z" transform="translate(-224.592 -1365.953)" fill="#0fa362"/>
    <path id="Trazado_10431" data-name="Trazado 10431" d="M232.086,1364.589a.308.308,0,0,0-.437,0l-8.035,8.035a.308.308,0,0,0,0,.437l1.172,1.172.437-.437-.954-.953,7.6-7.6,4.2,4.2-7.6,7.6-2.253-2.253-.437.437,1.326,1.326.219-.219.437.437-.218.218.708.709a.31.31,0,0,0,.437,0l8.035-8.034a.31.31,0,0,0,0-.437Z" transform="translate(-222.203 -1363.795)" fill="#0fa362"/>
    <path id="Trazado_10432" data-name="Trazado 10432" d="M224.891,1381.2h0a.262.262,0,0,0-.373,0l-1.108,1.108a.265.265,0,0,0,0,.374l.064.063a.263.263,0,0,0,.373,0l1.79-1.79a.264.264,0,0,0,0-.373l-.25-.25-.245.245.187.186a.264.264,0,0,1,0,.373l-.064.064A.264.264,0,0,1,224.891,1381.2Z" transform="translate(-222.121 -1370.578)" fill="#0fa362"/>
    <rect id="Rectángulo_2072" data-name="Rectángulo 2072" width="0.618" height="0.528" transform="translate(2.584 10.438) rotate(-45)" fill="#0fa362"/>
    <rect id="Rectángulo_2073" data-name="Rectángulo 2073" width="3.496" height="0.618" rx="0.309" transform="translate(0.794 14.391) rotate(-45)" fill="#0fa362"/>
    <rect id="Rectángulo_2074" data-name="Rectángulo 2074" width="1.002" height="0.618" rx="0.309" transform="matrix(0.707, -0.707, 0.707, 0.707, 4.193, 13.464)" fill="#0fa362"/>
    <rect id="Rectángulo_2075" data-name="Rectángulo 2075" width="0.309" height="0.618" transform="translate(4.902 12.756) rotate(-45)" fill="#0fa362"/>
    <rect id="Rectángulo_2076" data-name="Rectángulo 2076" width="0.874" height="0.618" rx="0.309" transform="matrix(0.707, -0.707, 0.707, 0.707, 2.957, 14.7)" fill="#0fa362"/>
    <rect id="Rectángulo_2079" data-name="Rectángulo 2079" width="3.933" height="0.618" rx="0.309" transform="translate(8.211 13.773) rotate(-44.999)" fill="#0fa362"/>
    <path id="Trazado_10433" data-name="Trazado 10433" d="M234.723,1374.937l-.2.2-.1-.1a.156.156,0,0,0-.2,0l-.205.2a.159.159,0,0,0,0,.205l.031.031a.121.121,0,0,0,.144.009l.436-.234a.406.406,0,0,1,.485.061l.031.031a.449.449,0,0,1,.05.553.1.1,0,0,0,.013.125l.072.071a.1.1,0,0,1,0,.141l-.064.063a.1.1,0,0,1-.142,0l-.072-.072a.1.1,0,0,0-.124-.013.448.448,0,0,1-.553-.05l-.1-.1.2-.2.1.1a.158.158,0,0,0,.207,0l.2-.2a.156.156,0,0,0,0-.2l-.031-.031a.12.12,0,0,0-.143-.011l-.435.235a.41.41,0,0,1-.487-.059l-.031-.031a.448.448,0,0,1-.05-.553.1.1,0,0,0-.013-.124l-.071-.072a.1.1,0,0,1,0-.141l.063-.063a.1.1,0,0,1,.142,0l.071.071a.1.1,0,0,0,.125.012.45.45,0,0,1,.553.051Z" transform="translate(-226.535 -1368.152)" fill="#0fa362"/>
    <g id="Grupo_23968" data-name="Grupo 23968" transform="translate(0 0)">
      <g id="Grupo_23966" data-name="Grupo 23966" transform="translate(0.177)">
        <rect id="Rectángulo_2077" data-name="Rectángulo 2077" width="3.059" height="0.618" rx="0.309" transform="translate(2.6 2.909) rotate(135)" fill="url(#linear-gradient)"/>
        <rect id="Rectángulo_2078" data-name="Rectángulo 2078" width="0.874" height="0.618" rx="0.309" transform="translate(3.836 1.673) rotate(135)" fill="url(#linear-gradient)"/>
        <rect id="Rectángulo_2080" data-name="Rectángulo 2080" width="0.874" height="0.618" rx="0.309" transform="translate(5.073 0.437) rotate(135)" fill="url(#linear-gradient)"/>
      </g>
      <path id="Unión_82" data-name="Unión 82" d="M0,2.8V0H.542V2.256H2.8V2.8Z" transform="translate(0 2.554)" fill="url(#linear-gradient)"/>
    </g>
  </g>
</svg>
