<svg id="Grupo_27771" data-name="Grupo 27771" xmlns="http://www.w3.org/2000/svg" width="13.761" height="4.444" viewBox="0 0 13.761 4.444">
  <g id="Grupo_27770" data-name="Grupo 27770" transform="translate(0 0)">
    <g id="Grupo_27769" data-name="Grupo 27769" transform="translate(0 0)">
      <path id="Trazado_28370" data-name="Trazado 28370" d="M11.492,2.854l.586-1.614.336,1.614Zm1.242,1.523h1.028l-.9-4.3h-.95a.505.505,0,0,0-.473.315L9.773,4.377H10.94l.232-.642H12.6Zm-2.9-1.4c0-1.135-1.569-1.2-1.558-1.7,0-.155.15-.319.471-.36a2.1,2.1,0,0,1,1.1.192l.195-.911A2.976,2.976,0,0,0,9,0C7.9,0,7.123.584,7.116,1.421c-.007.619.552.964.974,1.17s.578.345.576.534c0,.288-.345.416-.666.42a2.332,2.332,0,0,1-1.142-.272l-.2.942A3.384,3.384,0,0,0,7.9,4.444c1.168,0,1.932-.578,1.936-1.471M6.814.079l-.92,4.3H4.782L5.7.079Zm-1.589,0-1.8,4.3H2.248L1.361.947A.471.471,0,0,0,1.1.569,4.662,4.662,0,0,0,0,.2L.026.079H1.918a.518.518,0,0,1,.513.438L2.9,3,4.056.079Z" fill="#fff"/>
    </g>
  </g>
</svg>
