<svg xmlns="http://www.w3.org/2000/svg" width="13.04" height="14.312" viewBox="0 0 13.04 14.312">
  <g id="Grupo_16712" data-name="Grupo 16712" transform="translate(0)">
    <path id="Trazado_9147" data-name="Trazado 9147" d="M258,69.225h-4.656a.572.572,0,0,0-.572.572v7.878a.249.249,0,0,0,.25.25h5.3a.249.249,0,0,0,.25-.25V69.8A.572.572,0,0,0,258,69.225Zm-1.039,3.866h-.645v-.322a.315.315,0,0,0-.315-.322h-.644a.33.33,0,0,0-.329.322h0a.571.571,0,0,0,.391.542l.884.294a.963.963,0,0,1,.658.917V74.7a.964.964,0,0,1-.96.967H256v.395a.249.249,0,0,1-.25.25H255.6a.25.25,0,0,1-.25-.25v-.175a.249.249,0,0,0-.2-.242.969.969,0,0,1-.767-.944V74.38h.644V74.7a.326.326,0,0,0,.329.322H256a.315.315,0,0,0,.315-.322v-.179a.319.319,0,0,0-.217-.305l-.885-.295a1.215,1.215,0,0,1-.832-1.153h0a.969.969,0,0,1,.767-.944.249.249,0,0,0,.2-.242v-.175a.25.25,0,0,1,.25-.25h.145a.25.25,0,0,1,.25.25V71.8H256a.964.964,0,0,1,.96.967Z" transform="translate(-252.773 -65.224)" fill="#0fa362"/>
    <path id="Trazado_9148" data-name="Trazado 9148" d="M252.773,102.01a.572.572,0,0,0,.572.572H258a.572.572,0,0,0,.572-.572v-.145a.25.25,0,0,0-.25-.25h-5.3a.25.25,0,0,0-.25.25Z" transform="translate(-252.773 -88.27)" fill="#0fa362"/>
    <path id="Trazado_9149" data-name="Trazado 9149" d="M258.358,54.955v2.723a.248.248,0,0,0,.246.25h.143a.248.248,0,0,0,.246-.25v-.145a.248.248,0,0,1,.246-.25h9.667a.248.248,0,0,1,.246.25v8.2a.248.248,0,0,1-.246.25h-5.222a.248.248,0,0,0-.246.25v.145a.248.248,0,0,0,.246.25h5.857a.248.248,0,0,0,.246-.25V54.955a.248.248,0,0,0-.246-.25H258.6A.248.248,0,0,0,258.358,54.955Zm.635,1.434V55.6a.248.248,0,0,1,.246-.25h9.667a.248.248,0,0,1,.246.25v.79a.248.248,0,0,1-.246.25h-9.667A.248.248,0,0,1,258.993,56.389Z" transform="translate(-256.747 -54.705)" fill="#0fa362"/>
    <rect id="Rect치ngulo_2080" data-name="Rect치ngulo 2080" width="0.644" height="0.644" rx="0.322" transform="translate(3.814 0.967)" fill="#0fa362"/>
    <rect id="Rect치ngulo_2081" data-name="Rect치ngulo 2081" width="0.644" height="0.644" rx="0.322" transform="translate(2.86 0.967)" fill="#0fa362"/>
    <path id="Trazado_9150" data-name="Trazado 9150" d="M277.442,76.966l1.747-1.747a.25.25,0,0,1,.426.177v.3a.25.25,0,0,0,.25.25h.145a.249.249,0,0,0,.25-.25V73.943a.249.249,0,0,0-.25-.25h-1.756a.25.25,0,0,0-.25.25v.145a.249.249,0,0,0,.25.25h.3a.25.25,0,0,1,.177.426l-1.747,1.747a.25.25,0,0,0,0,.353l.1.1A.25.25,0,0,0,277.442,76.966Z" transform="translate(-270.07 -68.307)" fill="#0fa362"/>
  </g>
</svg>
