<svg xmlns="http://www.w3.org/2000/svg" width="16.104" height="13.871" viewBox="0 0 16.104 13.871">
  <g id="Grupo_19184" data-name="Grupo 19184" transform="translate(0 0)">
    <path id="Exclusión_9" data-name="Exclusión 9" d="M3.459,6.911A3.456,3.456,0,1,1,6.915,3.456,3.461,3.461,0,0,1,3.459,6.911Zm0-2.21a.725.725,0,1,0,.724.725A.726.726,0,0,0,3.457,4.7ZM3.352,1.908a.485.485,0,0,1,.5.457c0,.176-.2.346-.43.542-.3.253-.633.539-.633.92v.588H4.028v-.4c0-.178.177-.325.381-.5A1.457,1.457,0,0,0,5.091,2.38,1.536,1.536,0,0,0,3.5.761a2.126,2.126,0,0,0-1.678.967l.781.724C2.855,2.125,3.08,1.908,3.352,1.908Z" transform="translate(4.595 6.46)" fill="#0fa362" stroke="rgba(0,0,0,0)" stroke-width="1"/>
    <g id="Grupo_16725" data-name="Grupo 16725" transform="translate(2.534 2.733)">
      <g id="Grupo_16716" data-name="Grupo 16716" transform="translate(1.156)">
        <path id="Trazado_15049" data-name="Trazado 15049" d="M5705.878,2229.86a.336.336,0,0,1-.335-.336v-1.677h.671v1.134l.857-.428.3.6-1.34.671A.339.339,0,0,1,5705.878,2229.86Z" transform="translate(-5705.543 -2227.847)" fill="#0fa362"/>
      </g>
      <g id="Grupo_16717" data-name="Grupo 16717" transform="translate(0 0.707)">
        <rect id="Rectángulo_3173" data-name="Rectángulo 3173" width="0.671" height="1.5" transform="translate(0 0.6) rotate(-63.435)" fill="#0fa362"/>
      </g>
      <g id="Grupo_16718" data-name="Grupo 16718" transform="translate(0.248 1.342)">
        <path id="Trazado_15050" data-name="Trazado 15050" d="M5704.522,2233.909l-.77-.77-.769.77-.474-.474,1.006-1.007a.336.336,0,0,1,.474,0l1.007,1.007Z" transform="translate(-5702.51 -2232.331)" fill="#0fa362"/>
      </g>
      <g id="Grupo_16719" data-name="Grupo 16719" transform="translate(5.183)">
        <path id="Trazado_15051" data-name="Trazado 15051" d="M5719.328,2229.86a.337.337,0,0,1-.335-.336v-1.677h.671v1.134l.857-.428.3.6-1.34.671A.34.34,0,0,1,5719.328,2229.86Z" transform="translate(-5718.992 -2227.847)" fill="#0fa362"/>
      </g>
      <g id="Grupo_16720" data-name="Grupo 16720" transform="translate(4.026 0.707)">
        <rect id="Rectángulo_3174" data-name="Rectángulo 3174" width="0.671" height="1.5" transform="translate(0 0.6) rotate(-63.435)" fill="#0fa362"/>
      </g>
      <g id="Grupo_16721" data-name="Grupo 16721" transform="translate(4.274 1.342)">
        <path id="Trazado_15052" data-name="Trazado 15052" d="M5717.971,2233.909l-.77-.77-.769.77-.475-.474,1.006-1.007a.337.337,0,0,1,.475,0l1.007,1.007Z" transform="translate(-5715.958 -2232.331)" fill="#0fa362"/>
      </g>
      <g id="Grupo_16722" data-name="Grupo 16722" transform="translate(9.209)">
        <path id="Trazado_15053" data-name="Trazado 15053" d="M5732.776,2229.86a.335.335,0,0,1-.335-.336v-1.677h.67v1.134l.856-.428.3.6-1.343.671A.322.322,0,0,1,5732.776,2229.86Z" transform="translate(-5732.441 -2227.847)" fill="#0fa362"/>
      </g>
      <g id="Grupo_16723" data-name="Grupo 16723" transform="translate(8.052 0.707)">
        <rect id="Rectángulo_3175" data-name="Rectángulo 3175" width="0.671" height="1.5" transform="translate(0 0.6) rotate(-63.435)" fill="#0fa362"/>
      </g>
      <g id="Grupo_16724" data-name="Grupo 16724" transform="translate(8.301 1.342)">
        <path id="Trazado_15054" data-name="Trazado 15054" d="M5731.42,2233.909l-.77-.77-.77.77-.474-.474,1.007-1.007a.335.335,0,0,1,.473,0l1.007,1.007Z" transform="translate(-5729.407 -2232.331)" fill="#0fa362"/>
      </g>
    </g>
    <g id="Grupo_16726" data-name="Grupo 16726">
      <path id="Trazado_15055" data-name="Trazado 15055" d="M5708.313,2227.1h-2.683v-.671h2.683a.337.337,0,0,0,.337-.335v-6.375a.338.338,0,0,0-.337-.336h-14.092a.337.337,0,0,0-.335.336v6.375a.337.337,0,0,0,.335.335h2.685v.671h-2.685a1.007,1.007,0,0,1-1.006-1.006v-6.375a1.008,1.008,0,0,1,1.006-1.007h14.092a1.009,1.009,0,0,1,1.007,1.007v6.375A1.008,1.008,0,0,1,5708.313,2227.1Z" transform="translate(-5693.216 -2218.717)" fill="#0fa362"/>
    </g>
  </g>
</svg>
