<svg xmlns="http://www.w3.org/2000/svg" width="14.626" height="13.571" viewBox="0 0 14.626 13.571">
  <g id="Grupo_19415" data-name="Grupo 19415" transform="translate(0 0)">
    <g id="Grupo_20431" data-name="Grupo 20431" transform="translate(0 0)">
      <g id="account" transform="translate(0 0)">
        <path id="Trazado_18304" data-name="Trazado 18304" d="M5095.763,3084.472h-12.274a1.181,1.181,0,0,0-1.18,1.176v8.249a1.187,1.187,0,0,0,1.18,1.18h.978v-.815h-.916a.43.43,0,0,1-.425-.426v-6.091h13.05v6.091a.43.43,0,0,1-.422.426h-.956v.815h.962a1.181,1.181,0,0,0,1.175-1.18v-8.249A1.17,1.17,0,0,0,5095.763,3084.472Zm-11.118,2.59a.757.757,0,1,1,.757-.757A.756.756,0,0,1,5084.645,3087.062Zm2.608-.241a.73.73,0,0,1-.515.214.717.717,0,0,1-.518-.214.729.729,0,0,1,0-1.033.716.716,0,0,1,.518-.215.73.73,0,0,1,.515,1.247Z" transform="translate(-5082.309 -3084.472)" fill="#0fa362"/>
      </g>
      <path id="iconmonstr-gear-10" d="M5098.553,3100.828c-.2-.49.04-.828.327-1.439l-.887-.887c-.607.289-.945.533-1.438.328s-.556-.611-.783-1.248h-1.254c-.228.633-.288,1.043-.783,1.248s-.828-.04-1.439-.328l-.887.887c.29.608.534.945.329,1.439s-.614.555-1.248.782v1.254c.27.1.5.167.685.247a.952.952,0,0,1,.563.536,1.085,1.085,0,0,1,.071.28,2.426,2.426,0,0,1-.4,1.159l.887.887c.608-.289.945-.533,1.439-.328s.555.611.783,1.247h1.254c.228-.633.29-1.043.787-1.251a.921.921,0,0,1,.354-.074,2.794,2.794,0,0,1,1.081.406l.887-.887a2.4,2.4,0,0,1-.4-1.159,1.052,1.052,0,0,1,.073-.28.952.952,0,0,1,.561-.536c.189-.085.416-.152.686-.247v-1.254C5099.159,3101.383,5098.756,3101.319,5098.553,3100.828Zm-2.311,2.5a1.553,1.553,0,0,1-2.38-.221,1.535,1.535,0,0,1-.27-.877,1.553,1.553,0,1,1,2.836.877A1.831,1.831,0,0,1,5096.242,3103.333Z" transform="translate(-5087.83 -3093.322)" fill="#0fa362"/>
    </g>
  </g>
</svg>
