<svg id="Grupo_16169" data-name="Grupo 16169" xmlns="http://www.w3.org/2000/svg" width="14.268" height="14.268" viewBox="0 0 14.268 14.268">
  <path id="Trazado_10708" data-name="Trazado 10708" d="M140.249,122.331h-.7c-.055,0-.095,0-.124,0a.761.761,0,0,0-.427.415c-.013.06-.116.62-.228,1.235a.605.605,0,0,0,.426.342l.761-.022a.633.633,0,0,0,.372-.4l.209-1.278C140.557,122.482,140.339,122.33,140.249,122.331Z" transform="translate(-131.783 -116.174)" fill="#0fa362"/>
  <path id="Trazado_10709" data-name="Trazado 10709" d="M226.589,122.56h-.872c-.279,0-.427.349-.445.392s-.059.271-.109.534l1.617-.014a4.933,4.933,0,0,0,.068-.636C226.849,122.66,226.637,122.576,226.589,122.56Z" transform="translate(-213.824 -116.393)" fill="#0fa362"/>
  <path id="Trazado_10710" data-name="Trazado 10710" d="M7.364.23A7.134,7.134,0,1,0,14.5,7.364,7.134,7.134,0,0,0,7.364.23ZM5.65,5.705a.211.211,0,1,1-.211.211A.211.211,0,0,1,5.65,5.705Zm-.478-.716a.211.211,0,1,1-.211.211A.211.211,0,0,1,5.172,4.989Zm-.48.716a.211.211,0,1,1-.211.211A.211.211,0,0,1,4.692,5.705Zm-.471-.677a.174.174,0,1,1-.174.174A.174.174,0,0,1,4.222,5.028Zm-.458.713a.174.174,0,1,1-.174.174A.174.174,0,0,1,3.763,5.742Zm-.484-.661a.135.135,0,1,1-.135.135A.135.135,0,0,1,3.279,5.081Zm-.465.7a.135.135,0,1,1-.135.135A.135.135,0,0,1,2.815,5.781Zm-.7.072a.07.07,0,1,1-.07.07A.07.07,0,0,1,2.111,5.854Zm-.72,1.579a.07.07,0,1,1,.07-.07A.07.07,0,0,1,1.391,7.433Zm.249-.846a.07.07,0,1,1-.07.07A.07.07,0,0,1,1.64,6.587Zm.02,1.6a.07.07,0,1,1,.07-.07A.07.07,0,0,1,1.659,8.186Zm.435.674a.07.07,0,1,1,.07-.07A.07.07,0,0,1,2.095,8.859Zm.02-1.348a.135.135,0,1,1,.135-.135A.135.135,0,0,1,2.114,7.511Zm.236.74a.135.135,0,1,1,.135-.135A.135.135,0,0,1,2.35,8.251ZM2.356,6.79a.135.135,0,1,1,.135-.135A.135.135,0,0,1,2.356,6.79Zm.471,2.134a.135.135,0,1,1,.135-.135A.135.135,0,0,1,2.828,8.924ZM2.795,7.552a.174.174,0,1,1,.174-.174A.174.174,0,0,1,2.795,7.552Zm.484-1.071a.174.174,0,1,1-.174.174A.174.174,0,0,1,3.279,6.481Zm.013,3.182a.135.135,0,1,1,.135-.135A.135.135,0,0,1,3.292,9.663ZM3.286,8.29a.174.174,0,1,1,.174-.174A.174.174,0,0,1,3.286,8.29Zm.491.634a.135.135,0,1,1,.135-.135A.135.135,0,0,1,3.777,8.924Zm.452.778A.174.174,0,1,1,4.4,9.528.174.174,0,0,1,4.228,9.7ZM4.24,8.29a.174.174,0,1,1,.174-.174A.174.174,0,0,1,4.24,8.29Zm.465.674a.174.174,0,1,1,.174-.174A.174.174,0,0,1,4.706,8.964Zm.465.775a.211.211,0,1,1,.211-.211A.211.211,0,0,1,5.171,9.739ZM5.626,9a.211.211,0,1,1,.211-.211A.211.211,0,0,1,5.626,9Zm.221-.82H5.371a.211.211,0,1,1,0-.129h.423l.367-.619H3.954A.211.211,0,1,1,3.948,7.3H5.7L5.325,6.72h-.9a.211.211,0,1,1,0-.129h.97l.461.712H6.98v.129h-.69ZM8.92,8a.777.777,0,0,1-.484.507l-.02,0-.777.022H7.63a.713.713,0,0,1-.455-.276c-.084.46-.167.921-.218,1.2a.076.076,0,0,1-.074.062H6.869a.076.076,0,0,1-.061-.088s.12-.666.242-1.332c.061-.333.122-.666.168-.916.023-.125.042-.229.056-.3A1.181,1.181,0,0,1,7.3,6.751h0a.883.883,0,0,1,.548-.515h.021c.05,0,.529,0,.846,0h0c.073,0,.465.147.42.457,0,0,0,.005,0,.008L8.922,7.988Zm2.257-1.63H9.987a.535.535,0,0,0-.422.51s0,0,0,.006a.347.347,0,0,0,.272.371h.844s.422.032.4.609a.674.674,0,0,1-.547.654H9.188a.076.076,0,1,1,0-.151h1.324a.523.523,0,0,0,.416-.509c.015-.407-.218-.448-.256-.452H9.818a.487.487,0,0,1-.4-.529.683.683,0,0,1,.548-.658l.016,0h1.2a.076.076,0,1,1,0,.151Zm2.076,1.094-1.71.014a4,4,0,0,0-.076.613c.005.234.3.28.339.285h1.224a.076.076,0,0,1,0,.151H11.792c-.162-.017-.47-.13-.477-.433a9.842,9.842,0,0,1,.217-1.34l0-.01c.007-.02.188-.495.588-.495h.884a.076.076,0,0,1,.021,0c.015,0,.378.113.378.425a5.536,5.536,0,0,1-.08.724A.076.076,0,0,1,13.252,7.461Z" transform="translate(-0.23 -0.23)" fill="#0fa362"/>
</svg>
