<svg xmlns="http://www.w3.org/2000/svg" width="15.736" height="14.373" viewBox="0 0 15.736 14.373">
  <g id="Grupo_19180" data-name="Grupo 19180" transform="translate(0)">
    <path id="Trazado_9151" data-name="Trazado 9151" d="M208.672,71.308h-6.845a.682.682,0,0,0-.682.682v5.135a.682.682,0,0,0,.682.681h.346a.339.339,0,0,1,.24.1l.545.545a.339.339,0,0,0,.48,0l.545-.545a.34.34,0,0,1,.24-.1h4.45a.681.681,0,0,0,.682-.681V71.99A.682.682,0,0,0,208.672,71.308Zm-2.054,2.736h-.684V73.7a.371.371,0,0,0-.342-.342h-.684a.371.371,0,0,0-.342.342v.1a.288.288,0,0,0,.226.256l1.118.335a.962.962,0,0,1,.708.912v.1a1.059,1.059,0,0,1-.787,1,.331.331,0,0,0-.239.324v.052a.339.339,0,0,1-.34.34h0a.34.34,0,0,1-.34-.34v-.054a.352.352,0,0,0-.266-.332,1.059,1.059,0,0,1-.76-.986V75.07h.684v.342a.375.375,0,0,0,.349.342h.676a.371.371,0,0,0,.342-.342v-.1a.283.283,0,0,0-.22-.256l-1.118-.335a.965.965,0,0,1-.713-.912v-.1a1.059,1.059,0,0,1,.787-1,.331.331,0,0,0,.239-.324v-.051a.339.339,0,0,1,.34-.34h0a.339.339,0,0,1,.34.34v.051a.331.331,0,0,0,.239.324,1.059,1.059,0,0,1,.787,1Z" transform="translate(-193.618 -66.169)" fill="#0fa362"/>
    <path id="Trazado_9152" data-name="Trazado 9152" d="M187.734,68.087H175.756a.367.367,0,0,1-.34-.39V58.03a.367.367,0,0,1,.34-.39h11.979a.367.367,0,0,1,.34.39v.4a.367.367,0,0,0,.34.39h0a.367.367,0,0,0,.34-.39v-3.54a.367.367,0,0,0-.34-.39H175.071a.367.367,0,0,0-.339.39V68.482a.367.367,0,0,0,.339.39h13.347a.367.367,0,0,0,.34-.39V67.3a.367.367,0,0,0-.34-.39h0a.368.368,0,0,0-.34.39v.4A.367.367,0,0,1,187.734,68.087Zm-11.979-12.8h11.979a.367.367,0,0,1,.34.39v.791a.367.367,0,0,1-.34.39H175.756a.367.367,0,0,1-.34-.39v-.791A.367.367,0,0,1,175.756,55.284Z" transform="translate(-174.732 -54.499)" fill="#0fa362"/>
    <rect id="Rect치ngulo_2082" data-name="Rect치ngulo 2082" width="0.804" height="0.804" rx="0.402" transform="translate(2.822 1.153)" fill="#0fa362"/>
    <rect id="Rect치ngulo_2083" data-name="Rect치ngulo 2083" width="0.804" height="0.804" rx="0.402" transform="translate(1.615 1.153)" fill="#0fa362"/>
  </g>
</svg>
