<svg id="Grupo_22725" data-name="Grupo 22725" xmlns="http://www.w3.org/2000/svg" xmlns:xlink="http://www.w3.org/1999/xlink" width="14.821" height="14.293" viewBox="0 0 14.821 14.293">
  <defs>
    <clipPath id="clip-path">
      <rect id="Rectángulo_3892" data-name="Rectángulo 3892" width="14.821" height="14.293" fill="#0fa362"/>
    </clipPath>
  </defs>
  <g id="Grupo_21621" data-name="Grupo 21621" transform="translate(0 0)" clip-path="url(#clip-path)">
    <path id="Trazado_19293" data-name="Trazado 19293" d="M17.913,25.665c-1.2,1.774-1.972,2.885-1.972,3.964a1.973,1.973,0,0,0,3.945,0c0-1.079-.772-2.19-1.973-3.964m.114,5.047a1.816,1.816,0,0,0,.745-2.184c.937,1.211.186,2.317-.745,2.184Z" transform="translate(-10.732 -17.278)" fill="#0fa362"/>
    <path id="Trazado_19294" data-name="Trazado 19294" d="M13.321,11.436a.227.227,0,0,1-.185-.359,6.587,6.587,0,0,0,1.229-3.846A6.875,6.875,0,0,0,7.409.455,6.875,6.875,0,0,0,.454,7.231a6.585,6.585,0,0,0,1.229,3.846.228.228,0,1,1-.371.264A7.04,7.04,0,0,1,0,7.231,7.331,7.331,0,0,1,7.409,0a7.331,7.331,0,0,1,7.41,7.231,7.038,7.038,0,0,1-1.314,4.11.227.227,0,0,1-.185.1" transform="translate(0.001 0)" fill="#0fa362"/>
    <path id="Trazado_19295" data-name="Trazado 19295" d="M36.211,32.308a.666.666,0,0,1-.19-.027c-.7-.206-.908-1.535-.929-1.686a.228.228,0,0,1,.451-.064c.07.492.306,1.225.608,1.313.2.059.449-.2.584-.351a.227.227,0,0,1,.343.3,1.219,1.219,0,0,1-.866.517" transform="translate(-23.622 -20.422)" fill="#0fa362"/>
    <path id="Trazado_19296" data-name="Trazado 19296" d="M4.957,32.3a1.2,1.2,0,0,1-.952-.592.228.228,0,1,1,.369-.266c.208.288.418.422.633.4.561-.059,1.131-1.085,1.3-1.475a.227.227,0,1,1,.416.183c-.074.169-.749,1.646-1.672,1.743a.916.916,0,0,1-.1.006" transform="translate(-2.668 -20.349)" fill="#0fa362"/>
    <path id="Trazado_19297" data-name="Trazado 19297" d="M8.076,12.532A1.857,1.857,0,0,0,6.75,15.675a1.713,1.713,0,0,1,.459.927.3.3,0,0,0,.3.257H8.663a.308.308,0,0,0,.3-.259,1.7,1.7,0,0,1,.456-.924,1.855,1.855,0,0,0-1.348-3.144m.834,1.777-.428,1.968a.092.092,0,0,1-.09.073h0a.091.091,0,0,1-.072-.034.089.089,0,0,1-.019-.078l.354-1.628a.266.266,0,0,0-.022.025.285.285,0,0,1-.473,0c-.041-.047-.057-.062-.094-.062s-.053.016-.093.062a.284.284,0,0,1-.472,0c-.008-.009-.015-.018-.022-.025l.355,1.628a.1.1,0,0,1-.018.078.092.092,0,0,1-.073.034h0a.091.091,0,0,1-.09-.073l-.428-1.968a.095.095,0,0,1,.185-.04l.025.115a.306.306,0,0,1,.213.126c.041.047.057.062.094.062s.053-.015.094-.062a.284.284,0,0,1,.472,0c.041.047.057.062.094.062s.053-.015.094-.062a.306.306,0,0,1,.213-.126l.025-.115a.093.093,0,0,1,.112-.073.1.1,0,0,1,.073.112" transform="translate(-4.196 -8.436)" fill="#0fa362" fill-rule="evenodd"/>
    <path id="Trazado_19298" data-name="Trazado 19298" d="M11.058,28.559a.378.378,0,0,1-.334.374H9.883a.378.378,0,0,1-.333-.375h1.508Z" transform="translate(-6.429 -19.225)" fill="#0fa362" fill-rule="evenodd"/>
    <path id="Trazado_19299" data-name="Trazado 19299" d="M11.058,27.56v.188H9.55V27.56h1.508Z" transform="translate(-6.429 -18.553)" fill="#0fa362" fill-rule="evenodd"/>
    <path id="Trazado_19300" data-name="Trazado 19300" d="M10.649,26.273h.391a.561.561,0,0,0-.016.13v.152H9.515V26.4a.544.544,0,0,0-.016-.13h1.15Z" transform="translate(-6.395 -17.687)" fill="#0fa362" fill-rule="evenodd"/>
    <path id="Trazado_19301" data-name="Trazado 19301" d="M10.7,30.052a.377.377,0,0,0,.754,0H10.7Z" transform="translate(-7.206 -20.231)" fill="#0fa362" fill-rule="evenodd"/>
    <path id="Trazado_19302" data-name="Trazado 19302" d="M27.527,11.841l-2.046.678a.855.855,0,0,0-.542,1.079l1.455,4.393a.856.856,0,0,0,1.08.542l2.046-.678a.855.855,0,0,0,.542-1.08l-1.455-4.393a.855.855,0,0,0-1.079-.542m1.214,5.893-.717.237a.19.19,0,0,1-.126,0,.187.187,0,0,1,.009-.352l.716-.237a.187.187,0,0,1,.118.355m-2.33-5.1a.247.247,0,1,1,.054.164.243.243,0,0,1-.042-.077.246.246,0,0,1-.012-.088m-.96,1.229a.288.288,0,0,1,.183-.364l2.356-.781a.289.289,0,0,1,.364.183l1.16,3.5a.289.289,0,0,1-.183.364l-2.356.78a.288.288,0,0,1-.364-.183Z" transform="translate(-16.76 -7.942)" fill="#0fa362"/>
  </g>
</svg>
