<svg xmlns="http://www.w3.org/2000/svg" width="14.326" height="14.326" viewBox="0 0 14.326 14.326">
  <g id="Grupo_16171" data-name="Grupo 16171" transform="translate(0)">
    <g id="Grupo_7961" data-name="Grupo 7961" transform="translate(0 0)">
      <path id="Trazado_8963" data-name="Trazado 8963" d="M1376.539,1.827a7.171,7.171,0,0,1-7.163-7.163,7.171,7.171,0,0,1,7.163-7.163,7.171,7.171,0,0,1,7.163,7.163A7.171,7.171,0,0,1,1376.539,1.827Zm0-13.8a6.64,6.64,0,0,0-6.633,6.632,6.64,6.64,0,0,0,6.633,6.632,6.64,6.64,0,0,0,6.632-6.632A6.64,6.64,0,0,0,1376.539-11.968Z" transform="translate(-1369.376 12.499)" fill="#0fa35f"/>
    </g>
    <g id="Grupo_7962" data-name="Grupo 7962" transform="translate(1.293 1.316)">
      <path id="Trazado_8964" data-name="Trazado 8964" d="M1389.872,14.1c-.178,0-.359-.008-.536-.024a.265.265,0,0,1,.048-.528,5.459,5.459,0,0,0,.985,0,.265.265,0,1,1,.049.528C1390.238,14.087,1390.054,14.1,1389.872,14.1Zm-1.529-.211a.266.266,0,0,1-.072-.01,5.842,5.842,0,0,1-1.01-.391.265.265,0,0,1,.236-.475,5.312,5.312,0,0,0,.919.355.265.265,0,0,1-.072.521Zm3.066,0a.265.265,0,0,1-.072-.521,5.318,5.318,0,0,0,.918-.356.265.265,0,0,1,.237.475,5.873,5.873,0,0,1-1.01.392A.268.268,0,0,1,1391.409,13.882Zm-4.91-.915a.264.264,0,0,1-.16-.054,5.892,5.892,0,0,1-.8-.729.265.265,0,1,1,.392-.358,5.36,5.36,0,0,0,.728.663.265.265,0,0,1-.16.477Zm6.752-.005a.265.265,0,0,1-.16-.477,5.392,5.392,0,0,0,.728-.664.265.265,0,1,1,.392.357,5.9,5.9,0,0,1-.8.73A.263.263,0,0,1,1393.251,12.963Zm-8.141-1.515a.264.264,0,0,1-.225-.125,5.862,5.862,0,0,1-.485-.968.265.265,0,1,1,.495-.193,5.317,5.317,0,0,0,.44.88.265.265,0,0,1-.225.405Zm9.528-.007a.265.265,0,0,1-.225-.405,5.288,5.288,0,0,0,.439-.881.265.265,0,0,1,.5.192,5.88,5.88,0,0,1-.483.969A.265.265,0,0,1,1394.638,11.441ZM1384.363,9.53a.265.265,0,0,1-.26-.216,5.951,5.951,0,0,1-.1-1.078.266.266,0,0,1,.265-.266h0a.265.265,0,0,1,.265.265,5.425,5.425,0,0,0,.091.981.265.265,0,0,1-.212.31A.27.27,0,0,1,1384.363,9.53Zm11.019-.009a.268.268,0,0,1-.048,0,.265.265,0,0,1-.213-.309,5.4,5.4,0,0,0,.09-.981V8.208a.265.265,0,1,1,.531,0v.014a5.931,5.931,0,0,1-.1,1.082A.265.265,0,0,1,1395.382,9.521Zm-11.022-2.05a.265.265,0,0,1-.261-.313,5.789,5.789,0,0,1,.294-1.042.265.265,0,1,1,.495.191,5.287,5.287,0,0,0-.267.948A.266.266,0,0,1,1384.36,7.471Zm11.018-.026a.265.265,0,0,1-.26-.216,5.272,5.272,0,0,0-.272-.946.265.265,0,0,1,.494-.193,5.867,5.867,0,0,1,.3,1.041.265.265,0,0,1-.212.31A.27.27,0,0,1,1395.378,7.444ZM1385.1,5.55a.265.265,0,0,1-.225-.4,5.906,5.906,0,0,1,.651-.865.265.265,0,1,1,.393.357,5.341,5.341,0,0,0-.593.787A.266.266,0,0,1,1385.1,5.55Zm9.529-.022a.266.266,0,0,1-.225-.125,5.349,5.349,0,0,0-.6-.784.265.265,0,1,1,.391-.359,5.917,5.917,0,0,1,.655.862.265.265,0,0,1-.225.406Zm-8.144-1.5a.265.265,0,0,1-.161-.477,5.9,5.9,0,0,1,.919-.573.265.265,0,1,1,.238.474,5.326,5.326,0,0,0-.835.521A.267.267,0,0,1,1386.485,4.025Zm6.752-.016a.265.265,0,0,1-.159-.053,5.329,5.329,0,0,0-.839-.517.265.265,0,1,1,.236-.475,5.87,5.87,0,0,1,.922.569.265.265,0,0,1-.16.477Zm-4.912-.906a.265.265,0,0,1-.073-.52,5.87,5.87,0,0,1,1.064-.2.265.265,0,0,1,.05.528,5.334,5.334,0,0,0-.968.182A.267.267,0,0,1,1388.325,3.1Zm3.067-.007a.259.259,0,0,1-.072-.01,5.325,5.325,0,0,0-.969-.177.265.265,0,1,1,.047-.529,5.864,5.864,0,0,1,1.065.2.265.265,0,0,1-.072.521Z" transform="translate(-1384.002 -2.379)" fill="#0fa35f"/>
    </g>
    <g id="Grupo_7963" data-name="Grupo 7963" transform="translate(6.86 3.516)">
      <path id="Trazado_8965" data-name="Trazado 8965" d="M1447.215,34.526a.265.265,0,0,1-.265-.265V27.526a.265.265,0,1,1,.53,0V34.26A.265.265,0,0,1,1447.215,34.526Z" transform="translate(-1446.95 -27.261)" fill="#0fa35f"/>
    </g>
    <g id="Grupo_7964" data-name="Grupo 7964" transform="translate(3.396 6.889)">
      <path id="Trazado_8966" data-name="Trazado 8966" d="M1413.879,65.939h-5.832a.265.265,0,1,1,0-.531h5.832a.265.265,0,0,1,0,.531Z" transform="translate(-1407.781 -65.408)" fill="#0fa35f"/>
    </g>
    <g id="Grupo_7965" data-name="Grupo 7965" transform="translate(9.954 6.889)">
      <path id="Trazado_8967" data-name="Trazado 8967" d="M1482.556,65.939h-.353a.265.265,0,0,1,0-.531h.353a.265.265,0,0,1,0,.531Z" transform="translate(-1481.937 -65.408)" fill="#0fa35f"/>
    </g>
  </g>
</svg>
