<svg xmlns="http://www.w3.org/2000/svg" xmlns:xlink="http://www.w3.org/1999/xlink" width="211.119" height="197.856" viewBox="0 0 211.119 197.856">
  <defs>
    <filter id="Trazado_28611" x="64.942" y="60.738" width="109.783" height="77.813" filterUnits="userSpaceOnUse">
      <feOffset dy="3" input="SourceAlpha"/>
      <feGaussianBlur stdDeviation="5" result="blur"/>
      <feFlood/>
      <feComposite operator="in" in2="blur"/>
      <feComposite in="SourceGraphic"/>
    </filter>
    <filter id="Trazado_28615" x="0" y="0" width="211.119" height="197.856" filterUnits="userSpaceOnUse">
      <feOffset dy="3" input="SourceAlpha"/>
      <feGaussianBlur stdDeviation="25" result="blur-2"/>
      <feFlood/>
      <feComposite operator="in" in2="blur-2"/>
      <feComposite in="SourceGraphic"/>
    </filter>
  </defs>
  <g id="Grupo_28320" data-name="Grupo 28320" transform="translate(75 72)">
    <g transform="matrix(1, 0, 0, 1, -75, -72)" filter="url(#Trazado_28611)">
      <path id="Trazado_28611-2" data-name="Trazado 28611" d="M0,30.929S7.763,42.427,11.25,44.8s61.925,2.335,66.569-1.162-6.277-9.006-3.339-18.81S25.825,0,25.825,0Z" transform="matrix(1, 0.02, -0.02, 1, 80.75, 72.74)" fill="#fff"/>
    </g>
    <g transform="matrix(1, 0, 0, 1, -75, -72)" filter="url(#Trazado_28615)">
      <path id="Trazado_28615-2" data-name="Trazado 28615" d="M.541,7.967C-3.1,19.167,12.71,43.078,16.2,45.45s28.441,1.585,33.085-1.913,7.9-23.318,10.839-33.122S30.772.651,30.772.651,4.185-3.233.541,7.967Z" transform="matrix(1, 0.02, -0.02, 1, 75.82, 72)" fill="#fff"/>
    </g>
  </g>
</svg>
